<svg xmlns="http://www.w3.org/2000/svg" width="70" height="70" viewBox="140 200 100 80">
  <path d="M173.8,225c3.2,14.4,14.9,8.6,14.9,8.6" />
  <path class="stroke-2" d="M169.5,217.2c0.8,0,1.5-0.7,1.5-1.5c0-0.8-0.7-1.5-1.5-1.5c-0.8,0-1.5,0.7-1.5,1.5 C168.1,216.6,168.7,217.2,169.5,217.2z" />
  <path d="M158,264.8c1.6,0.6,4.3-1.1,5.3-3.7c1.7-4.4,0.1-8.6-0.4-8.7 c-0.5-0.2-4.6,1.8-6.3,6.2C155.6,261,156.4,264.2,158,264.8z" />
  <path d="M153.2,239.4c-1.6,0.7-2.2,3.8-1.1,6.3c1.8,4.3,6,6.2,6.5,5.9 c0.5-0.2,2-4.4,0-8.9C157.5,240.4,154.8,238.8,153.2,239.4z" />
  <path d="M170.8,205.7c-5.5,2.6-7.9,9.1-5.3,14.7c3.6,20.6,11.1,27.2,26.8,19.2 l9.4,20.9c2.3-3.2,3-7.5,1.2-11.3L185.3,211C182.7,205.4,176.2,203.1,170.8,205.7z" />
  <line x1="180" y1="242.7" x2="177.9" y2="251.3" />
  <line x1="150.9" y1="252.1" x2="360.8" y2="252.1" />
</svg>
